# xmcd
#
# Track frame offsets: 
#        150
#        13501
#        29852
#        47347
#        63304
#        80030
#        96850
#        108964
#        122896
#        137091
#        154380
#        168424
#
# Disc length: 2420 seconds
#
# Revision: 0
# Processed by: cddbd v1.5.2PL0 Copyright (c) Steve Scherf et al.
# Submitted via: ExactAudioCopy v0.95a3
#
DISCID=a009720c
DTITLE=Lena Ferres - Calypso und du
DYEAR=2010
DGENRE=Folk
TTITLE0=Calypso und du
TTITLE1=Ein bisschen lachen
TTITLE2=Ein Tag im Bett
TTITLE3=Ein hoffnungsvoller Fall
TTITLE4=Komplett verrückt
TTITLE5=Im nächsten Leben
TTITLE6=Komm hak dich ein
TTITLE7=Schatz der Nibelungen
TTITLE8=Vater Rhein
TTITLE9=Eifelfahrt
TTITLE10=Tanz auf dem Vulkan
TTITLE11=Calypso und du (Karaoke Version)
EXTD=
EXTT0=
EXTT1=
EXTT2=
EXTT3=
EXTT4=
EXTT5=
EXTT6=
EXTT7=
EXTT8=
EXTT9=
EXTT10=
EXTT11=
PLAYORDER=
